G04 ================== begin FILE IDENTIFICATION RECORD ==================*
G04 Layout Name:  C:/Users/user/Desktop/workspace/ex2_rlc/allegro/ex2_rlc.brd*
G04 Film Name:    BOTTOM*
G04 File Format:  Gerber RS274X*
G04 File Origin:  Cadence Allegro 17.2-S038*
G04 Origin Date:  Thu Jul 11 11:35:48 2019*
G04 *
G04 Layer:  ETCH/BOTTOM*
G04 Layer:  PIN/BOTTOM*
G04 Layer:  VIA CLASS/BOTTOM*
G04 *
G04 Offset:    (0.000 0.000)*
G04 Mirror:    No*
G04 Mode:      Positive*
G04 Rotation:  0*
G04 FullContactRelief:  No*
G04 UndefLineWidth:     0.000*
G04 ================== end FILE IDENTIFICATION RECORD ====================*
%FSLAX25Y25*MOMM*%
%IR0*IPPOS*OFA0.00000B0.00000*MIA0B0*SFA1.00000B1.00000*%
%ADD11C,1.524*%
%ADD12C,1.651*%
%ADD10C,.635*%
%ADD13C,.308*%
%ADD17C,1.91*%
%ADD14C,2.144*%
%ADD16C,2.272*%
%ADD15C,1.782*%
G75*
%LPD*%
G75*
G36*
G01X1320800Y3619500D02*
X3136900D01*
Y3746500D01*
X3492500D01*
Y3619500D01*
X4165600D01*
Y3810000D01*
X4660900D01*
Y3111500D01*
X5334000D01*
Y3429000D01*
X5727700D01*
Y2794000D01*
X6261100D01*
Y1841500D01*
X5727700D01*
Y889000D01*
X5334000D01*
Y1270000D01*
X4660900D01*
Y1016000D01*
X4165600D01*
Y2540000D01*
X3492500D01*
Y2222500D01*
X3136900D01*
Y2413000D01*
X1358900D01*
Y1905000D01*
X635000D01*
Y3048000D01*
X1320800D01*
Y3619500D01*
G37*
%LPC*%
G75*
G54D17*
X5016500Y1714500D03*
G54D14*
X5969000Y2349500D03*
X1016000Y2667000D03*
G54D16*
X5016500Y2730500D03*
X1778000Y3111500D03*
X2794000D03*
G54D15*
X5969000Y2095500D03*
X1016000Y2413000D03*
%LPD*%
G75*
G54D10*
X584200Y571500D03*
X558800Y4445000D03*
X6451600Y571500D03*
X6477000Y4445000D03*
G54D11*
X1016000Y2667000D03*
Y2413000D03*
X5969000Y2095500D03*
Y2349500D03*
G54D12*
X1778000Y3111500D03*
X2794000D03*
X5016500Y1714500D03*
Y2730500D03*
G54D13*
G01X1016000Y2318800D02*
Y2413000D01*
G01D02*
Y2507200D01*
G01X921800Y2413000D02*
X1016000D01*
G01D02*
X1110200D01*
G01X4915900Y1714500D02*
X5016500D01*
G01Y1613900D02*
Y1714500D01*
G01D02*
Y1815100D01*
G01Y1714500D02*
X5117100D01*
G01X5969000Y2001300D02*
Y2095500D01*
G01D02*
Y2189700D01*
G01X5874800Y2095500D02*
X5969000D01*
G01D02*
X6063200D01*
M02*
