G04 ================== begin FILE IDENTIFICATION RECORD ==================*
G04 Layout Name:  C:/Users/user/Desktop/workspace/ex2_rlc/allegro/ex2_rlc.brd*
G04 Film Name:    Design*
G04 File Format:  Gerber RS274X*
G04 File Origin:  Cadence Allegro 17.2-S038*
G04 Origin Date:  Thu Jul 11 11:34:46 2019*
G04 *
G04 Layer:  VIA CLASS/BOTTOM*
G04 Layer:  VIA CLASS/TOP*
G04 Layer:  ROUTE KEEPOUT/ALL*
G04 Layer:  ROUTE KEEPIN/ALL*
G04 Layer:  REF DES/SILKSCREEN_TOP*
G04 Layer:  REF DES/SILKSCREEN_BOTTOM*
G04 Layer:  PIN/BOTTOM*
G04 Layer:  PIN/TOP*
G04 Layer:  PACKAGE KEEPIN/ALL*
G04 Layer:  PACKAGE GEOMETRY/SILKSCREEN_TOP*
G04 Layer:  PACKAGE GEOMETRY/SILKSCREEN_BOTTOM*
G04 Layer:  PACKAGE GEOMETRY/SOLDERMASK_TOP*
G04 Layer:  PACKAGE GEOMETRY/SOLDERMASK_BOTTOM*
G04 Layer:  PACKAGE GEOMETRY/PASTEMASK_TOP*
G04 Layer:  PACKAGE GEOMETRY/PASTEMASK_BOTTOM*
G04 Layer:  MANUFACTURING/NCLEGEND-1-2*
G04 Layer:  ETCH/BOTTOM*
G04 Layer:  ETCH/TOP*
G04 Layer:  BOARD GEOMETRY/OUTLINE*
G04 Layer:  BOARD GEOMETRY/SILKSCREEN_TOP*
G04 Layer:  BOARD GEOMETRY/SILKSCREEN_BOTTOM*
G04 Layer:  BOARD GEOMETRY/SOLDERMASK_TOP*
G04 Layer:  BOARD GEOMETRY/SOLDERMASK_BOTTOM*
G04 Layer:  BOARD GEOMETRY/DESIGN_OUTLINE*
G04 *
G04 Offset:    (0.000 0.000)*
G04 Mirror:    No*
G04 Mode:      Positive*
G04 Rotation:  0*
G04 FullContactRelief:  No*
G04 UndefLineWidth:     0.000*
G04 ================== end FILE IDENTIFICATION RECORD ====================*
%FSLAX25Y25*MOMM*%
%IR0*IPPOS*OFA0.00000B0.00000*MIA0B0*SFA1.00000B1.00000*%
%ADD12C,1.524*%
%ADD14C,1.651*%
%AMMACRO15*
1,1,0.0,-.508,.3175*
20,1,0.0,-.508,.3175,-.500282,.405713,0.0*
1,1,0.0,-.500282,.405713*
20,1,0.0,-.500282,.405713,-.477364,.491246,0.0*
1,1,0.0,-.477364,.491246*
20,1,0.0,-.477364,.491246,-.439941,.5715,0.0*
1,1,0.0,-.439941,.5715*
20,1,0.0,-.439941,.5715,-.389151,.644036,0.0*
1,1,0.0,-.389151,.644036*
20,1,0.0,-.389151,.644036,-.326536,.706651,0.0*
1,1,0.0,-.326536,.706651*
20,1,0.0,-.326536,.706651,-.254,.757441,0.0*
1,1,0.0,-.254,.757441*
20,1,0.0,-.254,.757441,-.173746,.794864,0.0*
1,1,0.0,-.173746,.794864*
20,1,0.0,-.173746,.794864,-.088213,.817782,0.0*
1,1,0.0,-.088213,.817782*
20,1,0.0,-.088213,.817782,0.0,.8255,0.0*
1,1,0.0,0.0,.8255*
20,1,0.0,0.0,.8255,.088213,.817782,0.0*
1,1,0.0,.088213,.817782*
20,1,0.0,.088213,.817782,.173746,.794864,0.0*
1,1,0.0,.173746,.794864*
20,1,0.0,.173746,.794864,.254,.757441,0.0*
1,1,0.0,.254,.757441*
20,1,0.0,.254,.757441,.326536,.706651,0.0*
1,1,0.0,.326536,.706651*
20,1,0.0,.326536,.706651,.389151,.644036,0.0*
1,1,0.0,.389151,.644036*
20,1,0.0,.389151,.644036,.439941,.5715,0.0*
1,1,0.0,.439941,.5715*
20,1,0.0,.439941,.5715,.477364,.491246,0.0*
1,1,0.0,.477364,.491246*
20,1,0.0,.477364,.491246,.500282,.405713,0.0*
1,1,0.0,.500282,.405713*
20,1,0.0,.500282,.405713,.508,.3175,0.0*
1,1,0.0,.508,.3175*
20,1,0.0,.508,.3175,.508,-.3175,0.0*
1,1,0.0,.508,-.3175*
20,1,0.0,.508,-.3175,.500282,-.405713,0.0*
1,1,0.0,.500282,-.405713*
20,1,0.0,.500282,-.405713,.477364,-.491246,0.0*
1,1,0.0,.477364,-.491246*
20,1,0.0,.477364,-.491246,.439941,-.5715,0.0*
1,1,0.0,.439941,-.5715*
20,1,0.0,.439941,-.5715,.389151,-.644036,0.0*
1,1,0.0,.389151,-.644036*
20,1,0.0,.389151,-.644036,.326536,-.706651,0.0*
1,1,0.0,.326536,-.706651*
20,1,0.0,.326536,-.706651,.254,-.757441,0.0*
1,1,0.0,.254,-.757441*
20,1,0.0,.254,-.757441,.173746,-.794864,0.0*
1,1,0.0,.173746,-.794864*
20,1,0.0,.173746,-.794864,.088213,-.817782,0.0*
1,1,0.0,.088213,-.817782*
20,1,0.0,.088213,-.817782,0.0,-.8255,0.0*
1,1,0.0,0.0,-.8255*
20,1,0.0,0.0,-.8255,-.088213,-.817782,0.0*
1,1,0.0,-.088213,-.817782*
20,1,0.0,-.088213,-.817782,-.173746,-.794864,0.0*
1,1,0.0,-.173746,-.794864*
20,1,0.0,-.173746,-.794864,-.254,-.757441,0.0*
1,1,0.0,-.254,-.757441*
20,1,0.0,-.254,-.757441,-.326536,-.706651,0.0*
1,1,0.0,-.326536,-.706651*
20,1,0.0,-.326536,-.706651,-.389151,-.644036,0.0*
1,1,0.0,-.389151,-.644036*
20,1,0.0,-.389151,-.644036,-.439941,-.5715,0.0*
1,1,0.0,-.439941,-.5715*
20,1,0.0,-.439941,-.5715,-.477364,-.491246,0.0*
1,1,0.0,-.477364,-.491246*
20,1,0.0,-.477364,-.491246,-.500282,-.405713,0.0*
1,1,0.0,-.500282,-.405713*
20,1,0.0,-.500282,-.405713,-.508,-.3175,0.0*
1,1,0.0,-.508,-.3175*
20,1,0.0,-.508,-.3175,-.508,.3175,0.0*
1,1,0.0,-.508,.3175*
%
%ADD15MACRO15*%
%ADD16R,1.27X1.6*%
%AMMACRO13*
1,1,0.0,.635,0.0*
20,1,0.0,.635,0.0,.3175,.549926,0.0*
1,1,0.0,.3175,.549926*
20,1,0.0,.3175,.549926,-.3175,.549926,0.0*
1,1,0.0,-.3175,.549926*
20,1,0.0,-.3175,.549926,-.635,0.0,0.0*
1,1,0.0,-.635,0.0*
20,1,0.0,-.635,0.0,-.3175,-.549926,0.0*
1,1,0.0,-.3175,-.549926*
20,1,0.0,-.3175,-.549926,.3175,-.549926,0.0*
1,1,0.0,.3175,-.549926*
20,1,0.0,.3175,-.549926,.635,0.0,0.0*
1,1,0.0,.635,0.0*
%
%ADD13MACRO13*%
%ADD10C,.635*%
%AMMACRO11*
1,1,0.0,-.666,-.952*
20,1,0.0,-.666,-.952,.667,.953,0.0*
1,1,0.0,.667,.953*
1,1,0.0,-.666,.953*
20,1,0.0,-.666,.953,.667,-.952,0.0*
1,1,0.0,.667,-.952*
%
%ADD11MACRO11*%
%ADD17C,.254*%
%ADD18C,.308*%
%ADD20C,1.91*%
%ADD23C,2.272*%
%ADD21C,1.782*%
%ADD22R,6.731X.383*%
%ADD19R,5.084X5.084*%
G75*
%LPD*%
G75*
G36*
G01X813000Y4699900D02*
X6222800D01*
Y4190800D01*
X6699900D01*
Y825700D01*
X6197400D01*
Y317300D01*
X6699900D01*
Y300100D01*
X300100D01*
Y4190800D01*
X813000D01*
Y4699900D01*
G37*
%LPC*%
G75*
G36*
G01X5922600Y1764500D02*
Y1841500D01*
X6015400D01*
Y1726100D01*
X5957400Y1668100D01*
X5727700D01*
Y1760900D01*
X5919000D01*
X5922600Y1764500D01*
G37*
G36*
G01X969600Y1826200D02*
Y1905000D01*
X1062400D01*
Y1872500D01*
X1790800D01*
X1902400Y1760900D01*
X4165600D01*
Y1668100D01*
X1936000D01*
Y876200D01*
X1790800Y731000D01*
X965100D01*
X832600Y863500D01*
Y1689200D01*
X969600Y1826200D01*
G37*
G36*
G01X5930700Y2443800D02*
Y2449600D01*
G02X6007300I38300J-100100D01*
G01Y2443800D01*
G02X5930700I-38300J-94300D01*
G37*
G36*
G01X969600Y2763600D02*
G02X1062400I46400J-96600D01*
G02X969600I-46400J-96600D01*
G37*
G36*
G01X4978200Y2831700D02*
Y2837400D01*
G02X5054800I38300J-106900D01*
G01Y2831700D01*
G02X4978200I-38300J-101200D01*
G37*
G36*
G01X5727700Y3073200D02*
Y3149800D01*
X5959500D01*
X6007300Y3102000D01*
Y2794000D01*
X5930700D01*
Y3070200D01*
X5927700Y3073200D01*
X5727700D01*
G37*
G36*
G01X969600Y3099900D02*
X1027600Y3157900D01*
X1320800D01*
Y3065100D01*
X1066000D01*
X1062400Y3061500D01*
Y3048000D01*
X969600D01*
Y3099900D01*
G37*
G36*
G01X2895200Y3073200D02*
G02Y3149800I-101200J38300D01*
G01X2900900D01*
G02Y3073200I-106900J-38300D01*
G01X2895200D01*
G37*
G54D20*
X5016500Y1714500D03*
G54D23*
X1778000Y3111500D03*
G54D21*
X5969000Y2095500D03*
X1016000Y2413000D03*
G54D22*
X4997450Y3130650D03*
G54D19*
X584200Y571500D03*
%LPD*%
G75*
G36*
G01X863600Y1676400D02*
X952200Y1765000D01*
G02X969600Y1757800I7203J-7217D01*
G01Y1726100D01*
X1027600Y1668100D01*
X1905000D01*
Y889000D01*
X1778000Y762000D01*
X977900D01*
X863600Y876300D01*
Y1676400D01*
G37*
G36*
G01X1062400Y1841500D02*
X1778000D01*
X1841200Y1778300D01*
G02X1834000Y1760900I-7217J-7203D01*
G01X1066000D01*
X1062400Y1764500D01*
Y1841500D01*
G37*
G36*
G01X330200Y317500D02*
Y825500D01*
X838200D01*
Y317500D01*
X330200D01*
G37*
G36*
G01X304800Y4191000D02*
Y4699000D01*
X812800D01*
Y4191000D01*
X304800D01*
G37*
G36*
G01X6197600Y317500D02*
Y825500D01*
X6705600D01*
Y317500D01*
X6197600D01*
G37*
G36*
G01X6223000Y4191000D02*
Y4699000D01*
X6731000D01*
Y4191000D01*
X6223000D01*
G37*
G54D10*
X584200Y571500D03*
D03*
X558800Y4445000D03*
D03*
X6451600Y571500D03*
D03*
X6477000Y4445000D03*
D03*
G54D11*
X584200Y571500D03*
X558800Y4445000D03*
X6451600Y571500D03*
X6477000Y4445000D03*
X8444000Y302500D03*
G54D12*
X1016000Y2667000D03*
D03*
Y2413000D03*
D03*
X5969000Y2095500D03*
D03*
Y2349500D03*
D03*
G54D13*
X1016000Y2667000D03*
Y2413000D03*
X5969000Y2095500D03*
Y2349500D03*
X8444000Y1572500D03*
G54D14*
X1778000Y3111500D03*
D03*
X2794000D03*
D03*
X5016500Y1714500D03*
D03*
Y2730500D03*
D03*
G54D15*
X1778000Y3111500D03*
X2794000D03*
X5016500Y1714500D03*
Y2730500D03*
X8444000Y937500D03*
G54D16*
X4038600Y3111500D03*
X3708400D03*
G54D17*
G01X2794000D02*
X3708400D01*
G01X4038600D02*
X4991100D01*
G01D02*
X5016500Y3086100D01*
Y2730500D01*
G01X4991100Y3111500D02*
X5943600D01*
X5969000Y3086100D01*
Y2349500D01*
G54D18*
G01X1016000Y2413000D02*
Y1745300D01*
X1046800Y1714500D01*
X5016500D01*
G01X1016000Y2318800D02*
Y2413000D01*
G01D02*
Y2507200D01*
G01X921800Y2413000D02*
X1016000D01*
G01D02*
X1110200D01*
G01X1778000Y3111500D02*
X1046800D01*
X1016000Y3080700D01*
Y2667000D01*
G01X4915900Y1714500D02*
X5016500D01*
G01X5969000Y2095500D02*
Y1745300D01*
X5938200Y1714500D01*
X5016500D01*
G01Y1613900D02*
Y1714500D01*
G01D02*
Y1815100D01*
G01Y1714500D02*
X5117100D01*
G01X5969000Y2001300D02*
Y2095500D01*
G01D02*
Y2189700D01*
G01X5874800Y2095500D02*
X5969000D01*
G01D02*
X6063200D01*
M02*
