G04 ================== begin FILE IDENTIFICATION RECORD ==================*
G04 Layout Name:  C:/Users/user/Desktop/workspace/ex2_rlc/allegro/ex2_rlc.brd*
G04 Film Name:    DrillDraw*
G04 File Format:  Gerber RS274X*
G04 File Origin:  Cadence Allegro 17.2-S038*
G04 Origin Date:  Thu Jul 11 11:35:48 2019*
G04 *
G04 Layer:  MANUFACTURING/NCLEGEND-1-2*
G04 Layer:  BOARD GEOMETRY/OUTLINE*
G04 Layer:  BOARD GEOMETRY/DESIGN_OUTLINE*
G04 *
G04 Offset:    (0.000 0.000)*
G04 Mirror:    No*
G04 Mode:      Positive*
G04 Rotation:  0*
G04 FullContactRelief:  No*
G04 UndefLineWidth:     0.100*
G04 ================== end FILE IDENTIFICATION RECORD ====================*
%FSLAX25Y25*MOMM*%
%IR0*IPPOS*OFA0.00000B0.00000*MIA0B0*SFA1.00000B1.00000*%
%AMMACRO12*
1,1,.1,-.508,.3175*
20,1,.1,-.508,.3175,-.500282,.405713,0.0*
1,1,.1,-.500282,.405713*
20,1,.1,-.500282,.405713,-.477364,.491246,0.0*
1,1,.1,-.477364,.491246*
20,1,.1,-.477364,.491246,-.439941,.5715,0.0*
1,1,.1,-.439941,.5715*
20,1,.1,-.439941,.5715,-.389151,.644036,0.0*
1,1,.1,-.389151,.644036*
20,1,.1,-.389151,.644036,-.326536,.706651,0.0*
1,1,.1,-.326536,.706651*
20,1,.1,-.326536,.706651,-.254,.757441,0.0*
1,1,.1,-.254,.757441*
20,1,.1,-.254,.757441,-.173746,.794864,0.0*
1,1,.1,-.173746,.794864*
20,1,.1,-.173746,.794864,-.088213,.817782,0.0*
1,1,.1,-.088213,.817782*
20,1,.1,-.088213,.817782,0.0,.8255,0.0*
1,1,.1,0.0,.8255*
20,1,.1,0.0,.8255,.088213,.817782,0.0*
1,1,.1,.088213,.817782*
20,1,.1,.088213,.817782,.173746,.794864,0.0*
1,1,.1,.173746,.794864*
20,1,.1,.173746,.794864,.254,.757441,0.0*
1,1,.1,.254,.757441*
20,1,.1,.254,.757441,.326536,.706651,0.0*
1,1,.1,.326536,.706651*
20,1,.1,.326536,.706651,.389151,.644036,0.0*
1,1,.1,.389151,.644036*
20,1,.1,.389151,.644036,.439941,.5715,0.0*
1,1,.1,.439941,.5715*
20,1,.1,.439941,.5715,.477364,.491246,0.0*
1,1,.1,.477364,.491246*
20,1,.1,.477364,.491246,.500282,.405713,0.0*
1,1,.1,.500282,.405713*
20,1,.1,.500282,.405713,.508,.3175,0.0*
1,1,.1,.508,.3175*
20,1,.1,.508,.3175,.508,-.3175,0.0*
1,1,.1,.508,-.3175*
20,1,.1,.508,-.3175,.500282,-.405713,0.0*
1,1,.1,.500282,-.405713*
20,1,.1,.500282,-.405713,.477364,-.491246,0.0*
1,1,.1,.477364,-.491246*
20,1,.1,.477364,-.491246,.439941,-.5715,0.0*
1,1,.1,.439941,-.5715*
20,1,.1,.439941,-.5715,.389151,-.644036,0.0*
1,1,.1,.389151,-.644036*
20,1,.1,.389151,-.644036,.326536,-.706651,0.0*
1,1,.1,.326536,-.706651*
20,1,.1,.326536,-.706651,.254,-.757441,0.0*
1,1,.1,.254,-.757441*
20,1,.1,.254,-.757441,.173746,-.794864,0.0*
1,1,.1,.173746,-.794864*
20,1,.1,.173746,-.794864,.088213,-.817782,0.0*
1,1,.1,.088213,-.817782*
20,1,.1,.088213,-.817782,0.0,-.8255,0.0*
1,1,.1,0.0,-.8255*
20,1,.1,0.0,-.8255,-.088213,-.817782,0.0*
1,1,.1,-.088213,-.817782*
20,1,.1,-.088213,-.817782,-.173746,-.794864,0.0*
1,1,.1,-.173746,-.794864*
20,1,.1,-.173746,-.794864,-.254,-.757441,0.0*
1,1,.1,-.254,-.757441*
20,1,.1,-.254,-.757441,-.326536,-.706651,0.0*
1,1,.1,-.326536,-.706651*
20,1,.1,-.326536,-.706651,-.389151,-.644036,0.0*
1,1,.1,-.389151,-.644036*
20,1,.1,-.389151,-.644036,-.439941,-.5715,0.0*
1,1,.1,-.439941,-.5715*
20,1,.1,-.439941,-.5715,-.477364,-.491246,0.0*
1,1,.1,-.477364,-.491246*
20,1,.1,-.477364,-.491246,-.500282,-.405713,0.0*
1,1,.1,-.500282,-.405713*
20,1,.1,-.500282,-.405713,-.508,-.3175,0.0*
1,1,.1,-.508,-.3175*
20,1,.1,-.508,-.3175,-.508,.3175,0.0*
1,1,.1,-.508,.3175*
%
%ADD12MACRO12*%
%AMMACRO11*
1,1,.1,.635,0.0*
20,1,.1,.635,0.0,.3175,.549926,0.0*
1,1,.1,.3175,.549926*
20,1,.1,.3175,.549926,-.3175,.549926,0.0*
1,1,.1,-.3175,.549926*
20,1,.1,-.3175,.549926,-.635,0.0,0.0*
1,1,.1,-.635,0.0*
20,1,.1,-.635,0.0,-.3175,-.549926,0.0*
1,1,.1,-.3175,-.549926*
20,1,.1,-.3175,-.549926,.3175,-.549926,0.0*
1,1,.1,.3175,-.549926*
20,1,.1,.3175,-.549926,.635,0.0,0.0*
1,1,.1,.635,0.0*
%
%ADD11MACRO11*%
%AMMACRO10*
1,1,.1,-.666,-.952*
20,1,.1,-.666,-.952,.667,.953,0.0*
1,1,.1,.667,.953*
1,1,.1,-.666,.953*
20,1,.1,-.666,.953,.667,-.952,0.0*
1,1,.1,.667,-.952*
%
%ADD10MACRO10*%
%ADD13C,.1*%
G75*
%LPD*%
G75*
G54D10*
X584200Y571500D03*
X558800Y4445000D03*
X6451600Y571500D03*
X6477000Y4445000D03*
X8444000Y302500D03*
G54D11*
X1016000Y2667000D03*
Y2413000D03*
X5969000Y2095500D03*
Y2349500D03*
X8444000Y1572500D03*
G54D12*
X1778000Y3111500D03*
X2794000D03*
X5016500Y1714500D03*
Y2730500D03*
X8444000Y937500D03*
G54D13*
G01X0Y0D02*
Y5000000D01*
X7000000D01*
Y0D01*
X0D01*
G01X7302500Y-15000D02*
Y3810000D01*
X19898400D01*
Y-15000D01*
X7302500D01*
G01Y620000D02*
X19898400D01*
G01X7302500Y1255000D02*
X19898400D01*
G01X7581900Y2048800D02*
Y2366300D01*
X7731500D01*
G01X7676400Y2212800D02*
X7581900D01*
G01X7924400Y2366300D02*
X8018800D01*
G01X7971600D02*
Y2048800D01*
G01X7924400D02*
X8018800D01*
G01X8310100Y2207500D02*
X8388900D01*
Y2112300D01*
X8365200Y2080500D01*
X8337700Y2059400D01*
X8298300Y2048800D01*
X8258900Y2059400D01*
X8231400Y2080500D01*
X8207800Y2112300D01*
X8192000Y2149300D01*
X8184100Y2191700D01*
Y2228700D01*
X8192000Y2260500D01*
X8207800Y2297500D01*
X8231400Y2329300D01*
X8255000Y2350400D01*
X8286500Y2366300D01*
X8314100D01*
X8345500Y2355700D01*
X8369200Y2334500D01*
G01X8514800Y2366300D02*
Y2138800D01*
X8530500Y2091100D01*
X8562000Y2059400D01*
X8601400Y2048800D01*
X8640800Y2059400D01*
X8672300Y2091100D01*
X8688000Y2138800D01*
Y2366300D01*
G01X8837600Y2048800D02*
Y2366300D01*
X8936000D01*
X8967500Y2350400D01*
X8987200Y2329300D01*
X8995000Y2286900D01*
X8987200Y2244600D01*
X8963500Y2218100D01*
X8936000Y2202300D01*
X8837600D01*
G01X8936000D02*
X8995000Y2048800D01*
G01X9309900D02*
X9152500D01*
Y2366300D01*
X9309900D01*
G01X9246900Y2212800D02*
X9152500D01*
G01X7302500Y2525000D02*
X19898400D01*
G01X7302500Y1890000D02*
X19898400D01*
G01X7302500Y3160000D02*
X19898400D01*
G01X9250800Y2683800D02*
X9349200Y3001300D01*
X9447600Y2683800D01*
G01X9412200Y2794900D02*
X9286200D01*
G01X9585400Y3001300D02*
Y2683800D01*
X9742800D01*
G01X9900300Y3001300D02*
Y2683800D01*
X10057700D01*
G01X10522200Y3001300D02*
Y2773800D01*
X10537900Y2726100D01*
X10569400Y2694400D01*
X10608800Y2683800D01*
X10648200Y2694400D01*
X10679700Y2726100D01*
X10695400Y2773800D01*
Y3001300D01*
G01X10833200Y2683800D02*
Y3001300D01*
X11014200Y2683800D01*
Y3001300D01*
G01X11191400D02*
X11285800D01*
G01X11238600D02*
Y2683800D01*
G01X11191400D02*
X11285800D01*
G01X11553500Y3001300D02*
Y2683800D01*
G01X11463000Y3001300D02*
X11644000D01*
G01X11785700Y2726100D02*
X11817200Y2699700D01*
X11852700Y2683800D01*
X11884100D01*
X11915600Y2699700D01*
X11939300Y2726100D01*
X11951100Y2763200D01*
X11943200Y2800200D01*
X11923500Y2832000D01*
X11888100Y2853100D01*
X11840800Y2863700D01*
X11813300Y2884900D01*
X11801500Y2921900D01*
X11809400Y2959000D01*
X11829000Y2985400D01*
X11856600Y3001300D01*
X11884100D01*
X11911700Y2990700D01*
X11935300Y2964300D01*
G01X12399800Y2683800D02*
X12498200Y3001300D01*
X12596600Y2683800D01*
G01X12561200Y2794900D02*
X12435200D01*
G01X12734400Y2683800D02*
Y3001300D01*
X12832800D01*
X12864300Y2985400D01*
X12884000Y2964300D01*
X12891800Y2921900D01*
X12884000Y2879600D01*
X12860300Y2853100D01*
X12832800Y2837300D01*
X12734400D01*
G01X12832800D02*
X12891800Y2683800D01*
G01X13206700D02*
X13049300D01*
Y3001300D01*
X13206700D01*
G01X13143700Y2847800D02*
X13049300D01*
G01X13710600Y3001300D02*
X13805000D01*
G01X13757800D02*
Y2683800D01*
G01X13710600D02*
X13805000D01*
G01X13982200D02*
Y3001300D01*
X14163200Y2683800D01*
Y3001300D01*
G01X14600100Y2683800D02*
Y3001300D01*
X14702500Y2736700D01*
X14804900Y3001300D01*
Y2683800D01*
G01X14970200Y3001300D02*
X15064600D01*
G01X15017400D02*
Y2683800D01*
G01X14970200D02*
X15064600D01*
G01X15253600Y3001300D02*
Y2683800D01*
X15411000D01*
G01X15568500Y3001300D02*
Y2683800D01*
X15725900D01*
G01X15914900Y3001300D02*
X16009300D01*
G01X15962100D02*
Y2683800D01*
G01X15914900D02*
X16009300D01*
G01X16174600D02*
Y3001300D01*
X16277000Y2736700D01*
X16379400Y3001300D01*
Y2683800D01*
G01X16670600D02*
X16513200D01*
Y3001300D01*
X16670600D01*
G01X16607600Y2847800D02*
X16513200D01*
G01X16906800Y3001300D02*
Y2683800D01*
G01X16816300Y3001300D02*
X16997300D01*
G01X17300400Y2683800D02*
X17143000D01*
Y3001300D01*
X17300400D01*
G01X17237400Y2847800D02*
X17143000D01*
G01X17457900Y2683800D02*
Y3001300D01*
X17556300D01*
X17587800Y2985400D01*
X17607500Y2964300D01*
X17615300Y2921900D01*
X17607500Y2879600D01*
X17583800Y2853100D01*
X17556300Y2837300D01*
X17457900D01*
G01X17556300D02*
X17615300Y2683800D01*
G01X17768800Y2726100D02*
X17800300Y2699700D01*
X17835800Y2683800D01*
X17867200D01*
X17898700Y2699700D01*
X17922400Y2726100D01*
X17934200Y2763200D01*
X17926300Y2800200D01*
X17906600Y2832000D01*
X17871200Y2853100D01*
X17823900Y2863700D01*
X17796400Y2884900D01*
X17784600Y2921900D01*
X17792500Y2959000D01*
X17812100Y2985400D01*
X17839700Y3001300D01*
X17867200D01*
X17894800Y2990700D01*
X17918400Y2964300D01*
G01X9585500Y2525000D02*
Y-15000D01*
G01X10179800Y2048800D02*
Y2366300D01*
X10329400D01*
G01X10274300Y2212800D02*
X10179800D01*
G01X10522300Y2366300D02*
X10616700D01*
G01X10569500D02*
Y2048800D01*
G01X10522300D02*
X10616700D01*
G01X10793900D02*
Y2366300D01*
X10974900Y2048800D01*
Y2366300D01*
G01X11152100D02*
X11246500D01*
G01X11199300D02*
Y2048800D01*
G01X11152100D02*
X11246500D01*
G01X11431500Y2091100D02*
X11463000Y2064700D01*
X11498500Y2048800D01*
X11529900D01*
X11561400Y2064700D01*
X11585100Y2091100D01*
X11596900Y2128200D01*
X11589000Y2165200D01*
X11569300Y2197000D01*
X11533900Y2218100D01*
X11486600Y2228700D01*
X11459100Y2249900D01*
X11447300Y2286900D01*
X11455200Y2324000D01*
X11474800Y2350400D01*
X11502400Y2366300D01*
X11529900D01*
X11557500Y2355700D01*
X11581100Y2329300D01*
G01X11746400Y2048800D02*
Y2366300D01*
G01X11911800D02*
Y2048800D01*
G01Y2207500D02*
X11746400D01*
G01X12222700Y2048800D02*
X12065300D01*
Y2366300D01*
X12222700D01*
G01X12159700Y2212800D02*
X12065300D01*
G01X12372300Y2048800D02*
Y2366300D01*
X12451000D01*
X12482500Y2350400D01*
X12506100Y2329300D01*
X12525800Y2297500D01*
X12541600Y2260500D01*
X12545500Y2207500D01*
X12541600Y2154600D01*
X12525800Y2117600D01*
X12506100Y2085800D01*
X12482500Y2064700D01*
X12451000Y2048800D01*
X12372300D01*
G01X12655700Y1943000D02*
X12891900D01*
G01X13006000Y2091100D02*
X13037500Y2064700D01*
X13073000Y2048800D01*
X13104400D01*
X13135900Y2064700D01*
X13159600Y2091100D01*
X13171400Y2128200D01*
X13163500Y2165200D01*
X13143800Y2197000D01*
X13108400Y2218100D01*
X13061100Y2228700D01*
X13033600Y2249900D01*
X13021800Y2286900D01*
X13029700Y2324000D01*
X13049300Y2350400D01*
X13076900Y2366300D01*
X13104400D01*
X13132000Y2355700D01*
X13155600Y2329300D01*
G01X13356400Y2366300D02*
X13450800D01*
G01X13403600D02*
Y2048800D01*
G01X13356400D02*
X13450800D01*
G01X13643700Y2366300D02*
X13793300D01*
X13643700Y2048800D01*
X13793300D01*
G01X14112100D02*
X13954700D01*
Y2366300D01*
X14112100D01*
G01X14049100Y2212800D02*
X13954700D01*
G01X9577500Y3333800D02*
Y3651300D01*
X9656200D01*
X9687700Y3635400D01*
X9711300Y3614300D01*
X9731000Y3582500D01*
X9746800Y3545500D01*
X9750700Y3492500D01*
X9746800Y3439600D01*
X9731000Y3402600D01*
X9711300Y3370800D01*
X9687700Y3349700D01*
X9656200Y3333800D01*
X9577500D01*
G01X9900300D02*
Y3651300D01*
X9998700D01*
X10030200Y3635400D01*
X10049900Y3614300D01*
X10057700Y3571900D01*
X10049900Y3529600D01*
X10026200Y3503100D01*
X9998700Y3487300D01*
X9900300D01*
G01X9998700D02*
X10057700Y3333800D01*
G01X10246700Y3651300D02*
X10341100D01*
G01X10293900D02*
Y3333800D01*
G01X10246700D02*
X10341100D01*
G01X10530100Y3651300D02*
Y3333800D01*
X10687500D01*
G01X10845000Y3651300D02*
Y3333800D01*
X11002400D01*
G01X11640100Y3624800D02*
X11616500Y3640700D01*
X11588900Y3651300D01*
X11557400D01*
X11522000Y3635400D01*
X11494500Y3609000D01*
X11474800Y3577200D01*
X11459000Y3524300D01*
X11455100Y3476700D01*
X11463000Y3429000D01*
X11474800Y3397300D01*
X11498400Y3365500D01*
X11525900Y3344400D01*
X11553500Y3333800D01*
X11581100D01*
X11608600Y3344400D01*
X11632200Y3360300D01*
X11651900Y3381400D01*
G01X11785700Y3333800D02*
Y3651300D01*
G01X11951100D02*
Y3333800D01*
G01Y3492500D02*
X11785700D01*
G01X12084900Y3333800D02*
X12183300Y3651300D01*
X12281700Y3333800D01*
G01X12246300Y3444900D02*
X12120300D01*
G01X12419500Y3333800D02*
Y3651300D01*
X12517900D01*
X12549400Y3635400D01*
X12569100Y3614300D01*
X12576900Y3571900D01*
X12569100Y3529600D01*
X12545400Y3503100D01*
X12517900Y3487300D01*
X12419500D01*
G01X12517900D02*
X12576900Y3333800D01*
G01X12813100Y3651300D02*
Y3333800D01*
G01X12722600Y3651300D02*
X12903600D01*
G01X13128000Y3323200D02*
X13120100Y3328500D01*
Y3339100D01*
X13128000Y3344400D01*
X13135900Y3339100D01*
Y3328500D01*
X13128000Y3323200D01*
G01Y3466100D02*
X13120100Y3471400D01*
Y3482000D01*
X13128000Y3487300D01*
X13135900Y3482000D01*
Y3471400D01*
X13128000Y3466100D01*
G01X13757800Y3651300D02*
Y3333800D01*
G01X13667300Y3651300D02*
X13848300D01*
G01X14072700Y3333800D02*
X14041200Y3339100D01*
X14013700Y3360300D01*
X13990000Y3392000D01*
X13974300Y3429000D01*
X13966400Y3471400D01*
Y3513700D01*
X13974300Y3556100D01*
X13990000Y3593100D01*
X14013700Y3624800D01*
X14041200Y3646000D01*
X14072700Y3651300D01*
X14104200Y3646000D01*
X14131700Y3624800D01*
X14155400Y3593100D01*
X14171100Y3556100D01*
X14179000Y3513700D01*
Y3471400D01*
X14171100Y3429000D01*
X14155400Y3392000D01*
X14131700Y3360300D01*
X14104200Y3339100D01*
X14072700Y3333800D01*
G01X14308900D02*
Y3651300D01*
X14403300D01*
X14434800Y3635400D01*
X14458500Y3598400D01*
X14466300Y3556100D01*
X14458500Y3513700D01*
X14438800Y3482000D01*
X14403300Y3466100D01*
X14308900D01*
G01X15017400Y3651300D02*
Y3333800D01*
G01X14962300Y3545500D02*
X15072500D01*
G01X15332300Y3333800D02*
X15308700Y3339100D01*
X15285100Y3360300D01*
X15269300Y3397300D01*
X15261400Y3439600D01*
X15269300Y3482000D01*
X15285100Y3519000D01*
X15308700Y3540200D01*
X15332300Y3545500D01*
X15355900Y3540200D01*
X15379500Y3519000D01*
X15395300Y3482000D01*
X15399200Y3439600D01*
X15395300Y3397300D01*
X15379500Y3360300D01*
X15355900Y3339100D01*
X15332300Y3333800D01*
G01X15993600Y3503100D02*
X16009300Y3519000D01*
X16021100Y3545500D01*
X16029000Y3582500D01*
X16021100Y3614300D01*
X16005400Y3635400D01*
X15977800Y3651300D01*
X15871600D01*
Y3333800D01*
X16001500D01*
X16029000Y3355000D01*
X16044800Y3386700D01*
X16052600Y3423800D01*
X16044800Y3460800D01*
X16021100Y3492500D01*
X15993600Y3503100D01*
X15871600D01*
G01X16277000Y3333800D02*
X16245500Y3339100D01*
X16218000Y3360300D01*
X16194300Y3392000D01*
X16178600Y3429000D01*
X16170700Y3471400D01*
Y3513700D01*
X16178600Y3556100D01*
X16194300Y3593100D01*
X16218000Y3624800D01*
X16245500Y3646000D01*
X16277000Y3651300D01*
X16308500Y3646000D01*
X16336000Y3624800D01*
X16359700Y3593100D01*
X16375400Y3556100D01*
X16383300Y3513700D01*
Y3471400D01*
X16375400Y3429000D01*
X16359700Y3392000D01*
X16336000Y3360300D01*
X16308500Y3339100D01*
X16277000Y3333800D01*
G01X16591900Y3651300D02*
Y3333800D01*
G01X16501400Y3651300D02*
X16682400D01*
G01X16906800D02*
Y3333800D01*
G01X16816300Y3651300D02*
X16997300D01*
G01X17221700Y3333800D02*
X17190200Y3339100D01*
X17162700Y3360300D01*
X17139000Y3392000D01*
X17123300Y3429000D01*
X17115400Y3471400D01*
Y3513700D01*
X17123300Y3556100D01*
X17139000Y3593100D01*
X17162700Y3624800D01*
X17190200Y3646000D01*
X17221700Y3651300D01*
X17253200Y3646000D01*
X17280700Y3624800D01*
X17304400Y3593100D01*
X17320100Y3556100D01*
X17328000Y3513700D01*
Y3471400D01*
X17320100Y3429000D01*
X17304400Y3392000D01*
X17280700Y3360300D01*
X17253200Y3339100D01*
X17221700Y3333800D01*
G01X17434200D02*
Y3651300D01*
X17536600Y3386700D01*
X17639000Y3651300D01*
Y3333800D01*
G01X11427600Y207200D02*
X11451200Y170200D01*
X11482700Y149000D01*
X11518100Y143700D01*
X11549600Y149000D01*
X11581100Y175400D01*
X11600800Y207200D01*
X11604700Y238900D01*
X11596900Y276000D01*
X11569300Y302400D01*
X11541800Y313000D01*
X11506300D01*
G01X11541800D02*
X11565400Y328900D01*
X11585100Y355400D01*
X11592900Y387100D01*
X11585100Y418900D01*
X11565400Y445300D01*
X11529900Y461200D01*
X11494500Y455900D01*
X11459100Y434700D01*
G01X11829100Y133100D02*
X11821200Y138400D01*
Y149000D01*
X11829100Y154300D01*
X11837000Y149000D01*
Y138400D01*
X11829100Y133100D01*
G01X12144000Y143700D02*
Y461200D01*
X12096800Y397700D01*
G01Y143700D02*
X12191200D01*
G01X12451000D02*
X12458900Y212500D01*
X12470700Y270700D01*
X12486500Y323600D01*
X12506100Y381800D01*
X12537600Y461200D01*
X12380200D01*
G01X12687200Y191300D02*
X12710800Y164900D01*
X12738400Y149000D01*
X12773800Y143700D01*
X12809200Y154300D01*
X12836800Y175400D01*
X12856500Y212500D01*
X12860400Y254800D01*
X12852500Y297200D01*
X12832800Y323600D01*
X12805300Y344800D01*
X12777700Y350100D01*
X12750200Y344800D01*
X12714800Y323600D01*
X12726600Y461200D01*
X12832800D01*
G01X11514200Y778800D02*
Y1096300D01*
X11467000Y1032800D01*
G01Y778800D02*
X11561400D01*
G01X11829100Y768200D02*
X11821200Y773500D01*
Y784100D01*
X11829100Y789400D01*
X11837000Y784100D01*
Y773500D01*
X11829100Y768200D01*
G01X12144000Y1096300D02*
X12112500Y1085700D01*
X12088900Y1059300D01*
X12073100Y1027500D01*
X12061300Y985200D01*
X12057400Y937500D01*
X12061300Y889900D01*
X12073100Y847600D01*
X12088900Y815800D01*
X12112500Y789400D01*
X12144000Y778800D01*
X12175500Y789400D01*
X12199100Y815800D01*
X12214900Y847600D01*
X12226700Y889900D01*
X12230600Y937500D01*
X12226700Y985200D01*
X12214900Y1027500D01*
X12199100Y1059300D01*
X12175500Y1085700D01*
X12144000Y1096300D01*
G01X12384100Y911100D02*
X12411700Y948100D01*
X12435300Y969300D01*
X12466800Y979900D01*
X12494300Y969300D01*
X12514000Y948100D01*
X12529800Y916400D01*
X12533700Y879300D01*
X12529800Y847600D01*
X12514000Y815800D01*
X12490400Y789400D01*
X12462800Y778800D01*
X12431300Y789400D01*
X12403800Y821100D01*
X12388000Y868800D01*
X12384100Y921700D01*
X12392000Y990500D01*
X12403800Y1027500D01*
X12423500Y1064500D01*
X12451000Y1091000D01*
X12478600Y1096300D01*
X12506100Y1085700D01*
X12525800Y1059300D01*
G01X12765900Y778800D02*
X12773800Y847600D01*
X12785600Y905800D01*
X12801400Y958700D01*
X12821000Y1016900D01*
X12852500Y1096300D01*
X12695100D01*
G01X11514200Y1731200D02*
X11482700Y1720600D01*
X11459100Y1694200D01*
X11443300Y1662400D01*
X11431500Y1620100D01*
X11427600Y1572400D01*
X11431500Y1524800D01*
X11443300Y1482500D01*
X11459100Y1450700D01*
X11482700Y1424300D01*
X11514200Y1413700D01*
X11545700Y1424300D01*
X11569300Y1450700D01*
X11585100Y1482500D01*
X11596900Y1524800D01*
X11600800Y1572400D01*
X11596900Y1620100D01*
X11585100Y1662400D01*
X11569300Y1694200D01*
X11545700Y1720600D01*
X11514200Y1731200D01*
G01X11829100Y1403100D02*
X11821200Y1408400D01*
Y1419000D01*
X11829100Y1424300D01*
X11837000Y1419000D01*
Y1408400D01*
X11829100Y1403100D01*
G01X12077100Y1450700D02*
X12104600Y1424300D01*
X12136100Y1413700D01*
X12167600Y1424300D01*
X12195200Y1456000D01*
X12214900Y1503700D01*
X12222700Y1551300D01*
Y1609500D01*
X12214900Y1657100D01*
X12195200Y1699400D01*
X12171600Y1720600D01*
X12144000Y1731200D01*
X12112500Y1720600D01*
X12088900Y1699400D01*
X12073100Y1667700D01*
X12065300Y1625400D01*
X12073100Y1588300D01*
X12092800Y1551300D01*
X12116400Y1530100D01*
X12144000Y1524800D01*
X12175500Y1535400D01*
X12199100Y1561900D01*
X12222700Y1609500D01*
G01X12458900Y1413700D02*
Y1731200D01*
X12411700Y1667700D01*
G01Y1413700D02*
X12506100D01*
G01X12821000D02*
Y1731200D01*
X12675400Y1503700D01*
X12872200D01*
G01X14808800Y143700D02*
Y461200D01*
X14989800Y143700D01*
Y461200D01*
G01X15214200Y143700D02*
X15182700Y149000D01*
X15155200Y170200D01*
X15131500Y201900D01*
X15115800Y238900D01*
X15107900Y281300D01*
Y323600D01*
X15115800Y366000D01*
X15131500Y403000D01*
X15155200Y434700D01*
X15182700Y455900D01*
X15214200Y461200D01*
X15245700Y455900D01*
X15273200Y434700D01*
X15296900Y403000D01*
X15312600Y366000D01*
X15320500Y323600D01*
Y281300D01*
X15312600Y238900D01*
X15296900Y201900D01*
X15273200Y170200D01*
X15245700Y149000D01*
X15214200Y143700D01*
G01X15438600D02*
Y461200D01*
X15619600Y143700D01*
Y461200D01*
G01X15792800Y249500D02*
X15895200D01*
G01X16080200Y143700D02*
Y461200D01*
X16174600D01*
X16206100Y445300D01*
X16229800Y408300D01*
X16237600Y366000D01*
X16229800Y323600D01*
X16210100Y291900D01*
X16174600Y276000D01*
X16080200D01*
G01X16395100Y461200D02*
Y143700D01*
X16552500D01*
G01X16690300D02*
X16788700Y461200D01*
X16887100Y143700D01*
G01X16851700Y254800D02*
X16725700D01*
G01X17103600Y461200D02*
Y143700D01*
G01X17013100Y461200D02*
X17194100D01*
G01X17497200Y143700D02*
X17339800D01*
Y461200D01*
X17497200D01*
G01X17434200Y307700D02*
X17339800D01*
G01X17646800Y143700D02*
Y461200D01*
X17725500D01*
X17757000Y445300D01*
X17780600Y424200D01*
X17800300Y392400D01*
X17816100Y355400D01*
X17820000Y302400D01*
X17816100Y249500D01*
X17800300Y212500D01*
X17780600Y180700D01*
X17757000Y159600D01*
X17725500Y143700D01*
X17646800D01*
G01X14702600Y2525000D02*
Y-15000D01*
G01X15450400Y778800D02*
Y1096300D01*
X15544800D01*
X15576300Y1080400D01*
X15600000Y1043400D01*
X15607800Y1001100D01*
X15600000Y958700D01*
X15580300Y927000D01*
X15544800Y911100D01*
X15450400D01*
G01X15765300Y1096300D02*
Y778800D01*
X15922700D01*
G01X16060500D02*
X16158900Y1096300D01*
X16257300Y778800D01*
G01X16221900Y889900D02*
X16095900D01*
G01X16473800Y1096300D02*
Y778800D01*
G01X16383300Y1096300D02*
X16564300D01*
G01X16867400Y778800D02*
X16710000D01*
Y1096300D01*
X16867400D01*
G01X16804400Y942800D02*
X16710000D01*
G01X17017000Y778800D02*
Y1096300D01*
X17095700D01*
X17127200Y1080400D01*
X17150800Y1059300D01*
X17170500Y1027500D01*
X17186300Y990500D01*
X17190200Y937500D01*
X17186300Y884600D01*
X17170500Y847600D01*
X17150800Y815800D01*
X17127200Y794700D01*
X17095700Y778800D01*
X17017000D01*
G01X15450400Y1413700D02*
Y1731200D01*
X15544800D01*
X15576300Y1715300D01*
X15600000Y1678300D01*
X15607800Y1636000D01*
X15600000Y1593600D01*
X15580300Y1561900D01*
X15544800Y1546000D01*
X15450400D01*
G01X15765300Y1731200D02*
Y1413700D01*
X15922700D01*
G01X16060500D02*
X16158900Y1731200D01*
X16257300Y1413700D01*
G01X16221900Y1524800D02*
X16095900D01*
G01X16473800Y1731200D02*
Y1413700D01*
G01X16383300Y1731200D02*
X16564300D01*
G01X16867400Y1413700D02*
X16710000D01*
Y1731200D01*
X16867400D01*
G01X16804400Y1577700D02*
X16710000D01*
G01X17017000Y1413700D02*
Y1731200D01*
X17095700D01*
X17127200Y1715300D01*
X17150800Y1694200D01*
X17170500Y1662400D01*
X17186300Y1625400D01*
X17190200Y1572400D01*
X17186300Y1519500D01*
X17170500Y1482500D01*
X17150800Y1450700D01*
X17127200Y1429600D01*
X17095700Y1413700D01*
X17017000D01*
G01X15450400Y2048800D02*
Y2366300D01*
X15544800D01*
X15576300Y2350400D01*
X15600000Y2313400D01*
X15607800Y2271100D01*
X15600000Y2228700D01*
X15580300Y2197000D01*
X15544800Y2181100D01*
X15450400D01*
G01X15765300Y2366300D02*
Y2048800D01*
X15922700D01*
G01X16060500D02*
X16158900Y2366300D01*
X16257300Y2048800D01*
G01X16221900Y2159900D02*
X16095900D01*
G01X16473800Y2366300D02*
Y2048800D01*
G01X16383300Y2366300D02*
X16564300D01*
G01X16867400Y2048800D02*
X16710000D01*
Y2366300D01*
X16867400D01*
G01X16804400Y2212800D02*
X16710000D01*
G01X17017000Y2048800D02*
Y2366300D01*
X17095700D01*
X17127200Y2350400D01*
X17150800Y2329300D01*
X17170500Y2297500D01*
X17186300Y2260500D01*
X17190200Y2207500D01*
X17186300Y2154600D01*
X17170500Y2117600D01*
X17150800Y2085800D01*
X17127200Y2064700D01*
X17095700Y2048800D01*
X17017000D01*
G01X17930300Y2525000D02*
Y-15000D01*
G01X18599500Y2048800D02*
X18568000Y2054100D01*
X18540500Y2075300D01*
X18516800Y2107000D01*
X18501100Y2144000D01*
X18493200Y2186400D01*
Y2228700D01*
X18501100Y2271100D01*
X18516800Y2308100D01*
X18540500Y2339800D01*
X18568000Y2361000D01*
X18599500Y2366300D01*
X18631000Y2361000D01*
X18658500Y2339800D01*
X18682200Y2308100D01*
X18697900Y2271100D01*
X18705800Y2228700D01*
Y2186400D01*
X18697900Y2144000D01*
X18682200Y2107000D01*
X18658500Y2075300D01*
X18631000Y2054100D01*
X18599500Y2048800D01*
G01X18631000Y2133500D02*
X18678200Y2048800D01*
G01X18914400Y2366300D02*
Y2048800D01*
G01X18823900Y2366300D02*
X19004900D01*
G01X19229300Y2048800D02*
Y2191700D01*
X19150600Y2366300D01*
G01X19308000D02*
X19229300Y2191700D01*
G01X18961600Y143700D02*
Y461200D01*
X18816000Y233700D01*
X19012800D01*
G01X18961600Y778800D02*
Y1096300D01*
X18816000Y868800D01*
X19012800D01*
G01X18961600Y1413700D02*
Y1731200D01*
X18816000Y1503700D01*
X19012800D01*
M02*
